<?xml version="1.0" encoding="UTF-8"?>
<svg viewBox="0 0 191 60" xmlns="http://www.w3.org/2000/svg">
<path d="m77.904 49.153h3.6311v-0.9166h-4.5355v9.3634h0.9044v-8.4468zm6.882-0.4998c-0.7192 0.4272-1.3141 1.051-1.7213 1.8047-0.4189 0.7603-0.6367 1.6238-0.6312 2.5016-0.0094 0.6441 0.1089 1.2833 0.3474 1.8771s0.592 1.1294 1.0382 1.5728c0.9238 0.9506 2.0569 1.4259 3.3994 1.4259 1.3261 0 2.4499-0.4774 3.3716-1.4322 0.4473-0.4504 0.801-0.9928 1.0389-1.593s0.355-1.2454 0.3438-1.8952c0-1.3834-0.4619-2.5482-1.3858-3.4946-0.9238-0.9463-2.0711-1.4195-3.4419-1.4195-0.8276-5e-3 -1.6415 0.2201-2.3588 0.6524h-3e-4zm4.3343 0.7994c0.5901 0.3389 1.0806 0.8403 1.4185 1.4499 0.3379 0.6097 0.5103 1.3044 0.4986 2.0092 0.0082 0.7142-0.1652 1.4178-0.5025 2.0386-0.3308 0.6074-0.8149 1.1077-1.3992 1.4462-0.595 0.3517-1.2677 0.534-1.9509 0.5287-0.5004 0.0087-0.9972-0.0887-1.4607-0.2863-0.4634-0.1976-0.884-0.4914-1.2363-0.8636-0.3625-0.3632-0.6491-0.8013-0.8416-1.2866-0.1925-0.4852-0.2867-1.007-0.2767-1.5324-0.0086-0.7166 0.166-1.4227 0.5057-2.0448 0.3396-0.6047 0.823-1.1068 1.4032-1.4574s1.2372-0.5376 1.907-0.5429c0.6793-7e-4 1.3468 0.186 1.9352 0.5414h-3e-4zm14.915-0.933c-0.715-0.3537-1.499-0.5312-2.29-0.5188-1.398 0-2.5622 0.4679-3.4919 1.4036-0.9297 0.9356-1.3945 2.0889-1.3945 3.4596 0 1.3028 0.3838 2.4146 1.1514 3.3354 0.9151 1.0907 2.164 1.636 3.748 1.6359 0.779 0.0119 1.551-0.1543 2.262-0.4869 0.659-0.3122 1.239-0.7846 1.689-1.3781l-0.714-0.5602c-0.854 1.027-1.914 1.5405-3.182 1.5404-1.153 0-2.108-0.3819-2.8646-1.1457-0.7566-0.7639-1.1352-1.7166-1.1358-2.8581-0.0101-0.7158 0.1657-1.4209 0.5086-2.0401 0.3424-0.609 0.837-1.1085 1.4305-1.4449 0.6133-0.358 1.3043-0.5433 2.0063-0.5379 0.628-0.0074 1.249 0.1329 1.818 0.4106 0.558 0.2783 1.044 0.6918 1.419 1.2062l0.714-0.5665c-0.434-0.6229-1.009-1.1228-1.674-1.4545zm6.936-0.2832h-0.197l-3.939 9.3634h0.985l3.05-7.234 3 7.234h0.984l-3.883-9.3634zm5.409 9.3634h5.152v-0.9166h-4.247v-3.6792h4.247v-0.9166h-4.247v-2.9344h4.284v-0.9166h-5.189v9.3634zm6.727 0h7.275v1.4004h0.892v-2.2724h-0.704l-3.753-8.4914h-0.314l-3.553 8.4914h-0.736v2.2724h0.893v-1.4004zm3.557-7.4367 2.834 6.5647h-5.526l2.692-6.5647zm13.017-1.9267h-0.204l-6.006 7.3024v-7.3024h-0.905v9.3634h0.203l5.97-7.1794v7.1794h0.942v-9.3634zm12.45 0.2832c-0.715-0.3537-1.498-0.5312-2.289-0.5188-1.399 0-2.564 0.4679-3.493 1.4036-0.929 0.9356-1.394 2.0889-1.393 3.4596 0 1.3028 0.383 2.4146 1.15 3.3354 0.915 1.0907 2.164 1.636 3.748 1.6359 0.779 0.0119 1.551-0.1543 2.262-0.4869 0.659-0.3122 1.239-0.7846 1.689-1.3781l-0.714-0.5602c-0.853 1.027-1.913 1.5405-3.182 1.5404-1.152 0-2.107-0.3819-2.865-1.1457-0.756-0.7639-1.134-1.7166-1.134-2.8581-0.01-0.7156 0.165-1.4206 0.507-2.0401 0.343-0.609 0.837-1.1085 1.431-1.4449 0.613-0.3579 1.304-0.5432 2.006-0.5379 0.628-0.0076 1.249 0.1327 1.818 0.4106 0.558 0.2783 1.044 0.6918 1.419 1.2062l0.714-0.5665c-0.434-0.6229-1.009-1.1228-1.674-1.4545zm3.515 9.0802h2.485c0.895 0 1.608-0.2599 2.14-0.7797 0.255-0.2397 0.458-0.5339 0.595-0.8627 0.138-0.3289 0.206-0.6848 0.201-1.0438 3e-3 -0.3549-0.069-0.7061-0.212-1.028-0.138-0.3117-0.34-0.5877-0.591-0.8084-0.325-0.2618-0.694-0.4592-1.086-0.5824 0.355-0.1888 0.653-0.4761 0.863-0.8307 0.196-0.3432 0.298-0.7364 0.294-1.1363 4e-3 -0.4309-0.113-0.8535-0.336-1.2157-0.219-0.3612-0.538-0.6442-0.914-0.8116-0.385-0.176-0.937-0.2641-1.655-0.2641h-1.784v9.3634zm1.934-8.4468c0.633 0 1.094 0.122 1.385 0.3659 0.143 0.1206 0.257 0.2748 0.332 0.4501 0.076 0.1752 0.111 0.3667 0.102 0.5588 2e-3 0.3108-0.088 0.6145-0.258 0.869-0.174 0.2612-0.419 0.461-0.704 0.5729-0.296 0.1208-0.759 0.1813-1.387 0.1813h-0.519v-2.998h1.049zm-0.537 3.9401c0.766 0 1.301 0.0382 1.611 0.1146 0.416 0.0886 0.795 0.3112 1.084 0.6365 0.233 0.2728 0.37 0.6199 0.391 0.985 0.021 0.3652-0.077 0.7269-0.277 1.0265-0.184 0.281-0.442 0.4991-0.743 0.627-0.309 0.1337-0.793 0.2006-1.455 0.2005h-1.122v-3.5901h0.511zm5.821 4.5067h5.152v-0.9166h-4.247v-3.6792h4.247v-0.9166h-4.247v-2.9344h4.283v-0.9166h-5.188v9.3634zm7.872-8.4468v8.4468h0.923v-8.4468h2.018v-0.9166h-4.959v0.9166h2.018zm6.199-0.4998c-0.719 0.4274-1.314 1.0511-1.721 1.8047-0.419 0.7603-0.637 1.6238-0.631 2.5016-0.01 0.6441 0.109 1.2833 0.347 1.8771 0.239 0.5939 0.592 1.1294 1.038 1.5728 0.923 0.9506 2.056 1.4259 3.399 1.4259 1.327 0 2.45-0.4774 3.372-1.4322 0.447-0.4504 0.801-0.9927 1.039-1.5929 0.238-0.6003 0.355-1.2455 0.343-1.8953 0-1.3834-0.461-2.5482-1.385-3.4946-0.924-0.9463-2.072-1.4195-3.443-1.4195-0.827-0.0049-1.641 0.2202-2.358 0.6524zm4.334 0.7994c0.591 0.3387 1.081 0.8401 1.419 1.4498s0.51 1.3045 0.498 2.0093c8e-3 0.7141-0.165 1.4177-0.502 2.0386-0.331 0.6073-0.815 1.1076-1.399 1.4462-0.596 0.3517-1.268 0.534-1.952 0.5287-0.5 0.0086-0.997-0.0889-1.46-0.2865-0.464-0.1976-0.884-0.4912-1.237-0.8634-0.362-0.3632-0.649-0.8013-0.841-1.2865-0.193-0.4853-0.287-1.0071-0.277-1.5325-9e-3 -0.7165 0.166-1.4225 0.505-2.0448 0.34-0.6045 0.823-1.1065 1.403-1.4571 0.58-0.3505 1.237-0.5377 1.907-0.5432 0.68-8e-4 1.347 0.1859 1.936 0.5414zm5.788-0.2996v8.4468h0.923v-8.4468h2.019v-0.9166h-4.961v0.9166h2.019z" clip-rule="evenodd" fill="#8B949E" fill-rule="evenodd" stroke="#8B949E" stroke-linejoin="round" stroke-width=".3"/>
<path d="m105.15 45.225h26.031v-5.5281h-19.838v-15.518h19.837v-5.5281h-19.837v-12.123h19.837v-5.5281h-26.03v44.225zm-72.769 0h6.1931v-44.225h-6.1931v44.225zm63.869-0.063-5.5182-44.162h-3.1953l0.0012 0.0198-0.0012-0.00566-16.304 34.52-16.304-34.52-0.0012 0.00566 0.0012-0.0198h-3.195l-5.5181 44.162-0.0081 0.0408h0.0028l-0.0028 0.0222h6.3036l2e-3 -0.0396 3.5385-28.397 13.537 28.436 0.0037-0.0222h0.1794l0.0105 0.0222 0.0036-0.0222h2.8917l0.0037 0.0222 0.0105-0.0222h0.1794l0.0036 0.0222 13.537-28.436 3.5384 28.397 0.0021 0.0396h6.304l-0.0029-0.0222h0.0029l-0.0065-0.0412zm73.15 0.0307-2.848-22.759h-1.65l1e-3 0.0101-1e-3 -0.0029-8.416 17.79-8.417-17.79v0.0029-0.0101h-1.649l-2.849 22.759-4e-3 0.021h2e-3l-2e-3 0.0113h3.254l1e-3 -0.0206 1.827-14.634 6.988 14.655 2e-3 -0.0113h0.092l6e-3 0.0113 2e-3 -0.0113h1.493l2e-3 0.0113 5e-3 -0.0113h0.093l2e-3 0.0113 6.988-14.655 1.826 14.634 2e-3 0.0206h3.254l-2e-3 -0.0113h2e-3l-4e-3 -0.021zm-167.4-38.664h9.58v38.697h6.1931v-38.697h9.3865v-5.5281h-25.16v5.5281zm175.9 26.214 11.028-10.308h-4.043l-8.604 7.9256v-7.9256h-3.193v22.791h3.193v-9.8419l9.639 9.8419h4.083l-12.103-12.483zm-39.697 7.8279c-1.362 0-2.467 1.1072-2.467 2.4731 0 1.3658 1.105 2.4731 2.467 2.4731 1.363 0 2.468-1.1073 2.468-2.4731 0-1.3659-1.105-2.4731-2.468-2.4731z" fill="#C8D1D9"/>
</svg>
